<svg width="36" height="26" viewBox="0 0 36 26" fill="none" xmlns="http://www.w3.org/2000/svg">
<path d="M21.5997 10.7057L22.4221 12.6175C22.9459 12.3773 24.6475 11.7495 24.1813 10.6675C23.6962 9.54078 22.1233 10.4669 21.5997 10.7057ZM22.8383 13.5822L23.7454 15.6903C24.3742 15.4022 26.4065 14.633 25.8942 13.4448C25.36 12.2035 23.4678 13.2935 22.8383 13.5822Z" fill="#10D07D"/>
<path d="M19.6567 4.60155C15.1729 6.6649 13.1377 12.0646 15.1095 16.6639C17.0796 21.2624 22.3127 23.3185 26.7943 21.2581C31.2781 19.1948 33.316 13.7941 31.3434 9.19534C29.3728 4.59617 24.1397 2.54005 19.6567 4.60155ZM25.5468 9.41977C25.9739 10.2009 25.85 10.8442 25.4377 11.3673C26.4069 11.1793 27.1845 11.4616 27.5906 12.7087C28.0933 14.2568 27.1844 15.1525 25.6786 15.9544L26.3482 17.5172L25.4309 17.9394L24.7705 16.3992C24.5257 16.5117 24.2797 16.6217 24.0327 16.7291L24.6972 18.2776L23.7795 18.6979L23.1083 17.1329C22.8921 17.2305 22.6716 17.3269 22.4499 17.429L21.2544 17.9802L20.9555 16.7704C20.9555 16.7704 21.6393 16.469 21.6228 16.4637C21.8829 16.3435 21.8693 16.1212 21.8334 15.9931L20.7769 13.5233L20.8733 13.4793C20.8392 13.4895 20.8057 13.5021 20.7732 13.517L20.0178 11.7542C19.8999 11.5788 19.6848 11.4123 19.3123 11.5836C19.3189 11.5656 18.6455 11.891 18.6455 11.891L18.2134 10.8854L19.481 10.3028L19.483 10.3069C19.6732 10.2198 19.8667 10.1266 20.0638 10.0305L19.4004 8.48344L20.3184 8.06064L20.9685 9.57681C21.2112 9.45907 21.4565 9.34035 21.6977 9.22959L21.0521 7.72245L21.9701 7.29965L22.6335 8.84674C23.8647 8.40994 24.9636 8.35316 25.5468 9.41977Z" fill="#10D07D"/>
<path d="M8.93798 10.0238L8.44645 12.0529C9.00268 12.1955 10.719 12.7792 10.9967 11.6304C11.286 10.4343 9.49332 10.1674 8.93798 10.0238ZM8.19933 13.0776L7.65747 15.3151C8.32513 15.4865 10.3865 16.1684 10.6912 14.9065C11.0102 13.589 8.86789 13.249 8.19933 13.0776Z" fill="#FE9D3A"/>
<path d="M11.177 3.97519C6.35396 2.77346 1.47153 5.70802 0.269601 10.5302C-0.933227 15.3507 2.00182 20.2341 6.82123 21.4367C11.6442 22.6385 16.5294 19.7048 17.7304 14.8826C18.9332 10.0613 15.9982 5.17782 11.177 3.97519ZM12.9695 11.4241C12.839 12.3009 12.3519 12.7249 11.7073 12.8743C12.5941 13.3352 13.0442 14.0427 12.6157 15.2697C12.0827 16.7919 10.8168 16.9206 9.13145 16.6019L8.7227 18.2402L7.73595 17.9945L8.1384 16.3796C7.87512 16.3138 7.61251 16.2454 7.35062 16.1743L6.94637 17.7982L5.96052 17.5507L6.36927 15.9097C6.13789 15.8503 5.9038 15.7873 5.66522 15.7278L4.37866 15.4083L4.87024 14.2777C4.87024 14.2777 5.59769 14.4712 5.58779 14.4568C5.86779 14.5261 5.99113 14.3443 6.03975 14.2219L6.68708 11.6339L6.79062 11.66C6.75722 11.6465 6.72292 11.6354 6.68798 11.6267L7.14895 9.7786C7.16065 9.56796 7.08952 9.30331 6.68888 9.20339C6.70509 9.19349 5.97133 9.02516 5.97133 9.02516L6.23332 7.97016L7.59641 8.31042L7.5955 8.31492C7.79988 8.36623 8.01055 8.41484 8.22573 8.46345L8.62997 6.84134L9.61762 7.08709L9.22148 8.67679C9.48618 8.7371 9.75357 8.79831 10.0129 8.86313L10.4072 7.28332L11.3949 7.52907L10.9906 9.15118C12.2367 9.58237 13.1478 10.2269 12.9695 11.4241Z" fill="#FE9D3A"/>
</svg>
