<svg width="18" height="18" viewBox="0 0 18 18" fill="none" xmlns="http://www.w3.org/2000/svg">
<circle cx="9" cy="9" r="9" fill="white"/>
<path d="M4 5V6.5993V8.19859V9.80141H5.67773V8.19859V6.5993V5H4Z" fill="#151515"/>
<path d="M12.3223 8.19861V9.80142V11.4007V13H14V11.4007V9.80142V8.19861H12.3223Z" fill="#151515"/>
<path d="M8.96289 5V6.5993V8.13181L10.6406 9.73111V8.19859V6.5993L8.96289 5Z" fill="#151515"/>
<path d="M7.35938 8.26889V9.8014V11.4007L9.0371 13V11.4007V9.86819L7.35938 8.26889Z" fill="#151515"/>
<path d="M8.96289 5H10.6406L13.9998 8.19859H12.322L8.96289 5Z" fill="#151515"/>
<path d="M4 9.80139H5.67773L9.03687 13H7.35914L4 9.80139Z" fill="#151515"/>
<path d="M10.6409 6.5993V8.19859V9.71002L5.67773 5V6.5993V6.69772V8.19859V9.80141L7.35915 11.4007V9.80141V8.28998L12.3223 13V11.4007V11.3023V9.80141V8.19859L10.6409 6.5993Z" fill="#3CC68A"/>
</svg>
