<svg width="18" height="18" viewBox="0 0 18 18" fill="none" xmlns="http://www.w3.org/2000/svg">
<path d="M9 0C13.9708 0 18 4.02919 18 9C18 13.9708 13.9708 18 9 18C4.02919 18 0 13.9708 0 9C0 4.02919 4.02919 0 9 0ZM14.6076 7.38112H13.0888L12.1691 9.09113C12.1462 9.13254 12.1102 9.16519 12.0667 9.18394L12.0527 9.18956C12.0321 9.19733 12.0105 9.20189 11.9886 9.20306L11.9796 9.20419H6.39675L7.15894 10.5306L10.9896 10.5249L11.0256 10.5289C11.0598 10.5348 11.0921 10.5489 11.1198 10.57C11.1475 10.591 11.1697 10.6184 11.1846 10.6498C11.1995 10.6813 11.2066 10.7158 11.2053 10.7505C11.2041 10.7853 11.1945 10.8192 11.1774 10.8495V10.8489L8.92969 14.9057H9.66488L9.79819 14.9062H10.3764C10.3911 14.9062 10.4355 14.9062 10.4698 14.8444L14.6076 7.38112ZM10.6223 10.9603L9.13725 10.962L7.81819 13.3504C7.79456 13.3937 7.79962 13.4381 7.81087 13.4561L8.181 14.0692L8.27888 14.2312L8.3745 14.3899L8.55619 14.6902L10.6223 10.9603ZM4.91288 11.0531H3.375L3.88631 11.8997L4.1265 12.2974C4.14675 12.3311 4.19119 12.357 4.22775 12.357H5.643L4.91288 11.0531ZM6.02888 9.43088L5.28469 10.8332L6.02325 12.1517L6.77531 10.7297L6.02888 9.43031V9.43088ZM9.07481 3.09375H7.61062C7.59094 3.096 7.55662 3.10613 7.52962 3.15563L7.51444 3.18319C7.263 3.63544 4.03256 9.46237 3.39244 10.6194H4.90837L5.82863 8.88525C5.84674 8.85133 5.87362 8.8229 5.90647 8.80291C5.93932 8.78293 5.97693 8.77212 6.01538 8.77162C6.01777 8.77101 6.02022 8.77064 6.02269 8.7705H11.5802C11.4796 8.59553 11.3797 8.42022 11.2804 8.24456C11.1234 7.96837 10.9389 7.64269 10.8399 7.47056L7.10606 7.47619H7.00819C6.99166 7.47597 6.97522 7.4737 6.95925 7.46944L6.94631 7.4655C6.93428 7.46189 6.92261 7.45718 6.91144 7.45144L6.90356 7.44806L6.89681 7.44244C6.89062 7.43906 6.88444 7.43456 6.87825 7.43006C6.86725 7.42188 6.85724 7.41245 6.84844 7.40194L6.84113 7.3935L6.83494 7.38506C6.83082 7.37969 6.82706 7.37405 6.82369 7.36819C6.81613 7.35638 6.81043 7.34348 6.80681 7.32994L6.80344 7.31981L6.80062 7.30969C6.79893 7.30304 6.7978 7.29627 6.79725 7.28944C6.79595 7.28162 6.7952 7.27373 6.795 7.26581L6.79388 7.25794L6.795 7.24725C6.795 7.23938 6.79556 7.23094 6.79725 7.22306L6.80175 7.20337C6.80548 7.18905 6.81057 7.17511 6.81694 7.16175L6.82144 7.1505L9.07481 3.09375ZM11.9756 5.84719C11.7979 6.17288 11.3738 6.95531 11.2123 7.25006C11.2973 7.398 11.4486 7.6635 11.655 8.02744C11.7596 8.21194 11.871 8.40881 11.961 8.56575L12.7148 7.16625L11.9756 5.84719ZM9.44606 3.31481L7.37775 7.03856L8.86275 7.03688L10.1807 4.64962C10.2043 4.60631 10.1992 4.56187 10.188 4.54388L9.82013 3.93412L9.72225 3.77213L9.58162 3.53813L9.44663 3.31481H9.44606ZM12.3564 5.643L13.0866 6.94688H14.625L14.1491 6.15937L13.8735 5.70319C13.8624 5.68581 13.8473 5.67134 13.8295 5.66097C13.8117 5.6506 13.7917 5.64463 13.7711 5.64356L12.3564 5.643Z" fill="white"/>
</svg>
