<svg width="47" height="47" viewBox="0 0 47 47" fill="none" xmlns="http://www.w3.org/2000/svg">
<path d="M33.4377 31.1601C34.2968 29.3132 34.7796 27.3492 34.8559 25.3909L34.9207 23.7732C34.9221 23.7191 34.9101 23.6667 34.8856 23.6209C34.8612 23.5751 34.8252 23.5371 34.7806 23.5103C34.7361 23.4836 34.6844 23.4689 34.6302 23.4674C34.576 23.466 34.5208 23.4779 34.4696 23.5022L32.9467 24.2395C31.9927 24.7037 30.8415 24.9897 29.5374 25.0879C29.4527 25.0927 29.3974 25.0591 29.3649 25.0309C29.3323 25.0026 29.2933 24.9484 29.2973 24.8644C29.2978 24.789 29.3358 24.7158 29.3953 24.6652C31.3918 22.9848 33.0516 20.4602 34.3293 17.1504C35.3945 14.4042 35.695 11.6981 35.2368 9.10133L34.9002 7.20863C34.8569 6.96049 34.5403 6.88924 34.3497 7.08461L32.8953 8.57063C31.9013 9.58599 30.8857 10.3383 29.8857 10.7976C28.6621 11.3604 27.3765 11.7246 26.0617 11.881C25.1474 11.9891 24.2346 11.9956 23.3403 11.9003C21.1925 11.6651 18.9676 11.9239 16.8323 12.6575C14.6854 13.4051 12.6901 14.6196 11.0017 16.2065C9.51377 17.6064 8.32144 19.2257 7.45402 21.0261C6.62024 22.761 6.11757 24.6055 5.97379 26.4577C5.83007 28.3262 6.03954 30.1406 6.60654 31.8487C7.19153 33.6201 8.12964 35.1983 9.39782 36.5462C10.666 37.8942 12.1842 38.9267 13.9135 39.6215C15.5778 40.2916 17.3924 40.6177 19.2558 40.5815C21.1296 40.5518 22.9868 40.1634 24.7675 39.4349C26.613 38.6815 28.3234 37.5765 29.7943 36.1874C31.3327 34.7401 32.5599 33.0505 33.4377 31.1601Z" fill="#F43C42"/>
<path d="M7.7 31V23.8H8.745V26.905H12.345V23.8H13.395V31H12.345V27.89H8.745V31H7.7ZM17.8046 31.15C17.0846 31.15 16.4713 30.9933 15.9646 30.68C15.4579 30.3633 15.0696 29.9233 14.7996 29.36C14.5329 28.7967 14.3996 28.1433 14.3996 27.4C14.3996 26.6567 14.5329 26.0033 14.7996 25.44C15.0696 24.8767 15.4579 24.4383 15.9646 24.125C16.4713 23.8083 17.0846 23.65 17.8046 23.65C18.5213 23.65 19.1329 23.8083 19.6396 24.125C20.1496 24.4383 20.5379 24.8767 20.8046 25.44C21.0713 26.0033 21.2046 26.6567 21.2046 27.4C21.2046 28.1433 21.0713 28.7967 20.8046 29.36C20.5379 29.9233 20.1496 30.3633 19.6396 30.68C19.1329 30.9933 18.5213 31.15 17.8046 31.15ZM17.8046 30.155C18.3146 30.1617 18.7379 30.05 19.0746 29.82C19.4146 29.5867 19.6696 29.2633 19.8396 28.85C20.0096 28.4333 20.0946 27.95 20.0946 27.4C20.0946 26.85 20.0096 26.37 19.8396 25.96C19.6696 25.5467 19.4146 25.225 19.0746 24.995C18.7379 24.765 18.3146 24.6483 17.8046 24.645C17.2946 24.6383 16.8696 24.75 16.5296 24.98C16.1929 25.21 15.9396 25.5333 15.7696 25.95C15.5996 26.3667 15.5129 26.85 15.5096 27.4C15.5063 27.95 15.5896 28.4317 15.7596 28.845C15.9296 29.255 16.1846 29.575 16.5246 29.805C16.8679 30.035 17.2946 30.1517 17.8046 30.155ZM23.8016 31V24.785H21.4066V23.8H27.2416V24.785H24.8466V31H23.8016Z" fill="white"/>
</svg>
