<svg width="109" height="19" viewBox="0 0 109 19" fill="none" xmlns="http://www.w3.org/2000/svg">
<path d="M0 11.549V1.11765H4.49547V11.4248C4.49547 12.468 4.77897 13.2876 5.34597 13.8837C5.91296 14.4797 6.68246 14.7778 7.65445 14.7778C8.62645 14.7778 9.39594 14.4797 9.96294 13.8837C10.5299 13.2876 10.8134 12.468 10.8134 11.4248V1.11765H15.3089V11.549C15.3089 13.8009 14.6204 15.6057 13.2434 16.9634C11.8664 18.3211 10.0034 19 7.65445 19C5.30547 19 3.44248 18.3211 2.06549 16.9634C0.688496 15.6057 0 13.8009 0 11.549Z" fill="white"/>
<path d="M17.9819 18.5033V5.58823H22.1129V7.3268H22.3559C22.5827 6.92941 22.8743 6.5817 23.2307 6.28366C24.0569 5.57168 25.0207 5.21569 26.1223 5.21569C27.6127 5.21569 28.771 5.6793 29.5972 6.60654C30.4396 7.51721 30.8608 8.83355 30.8608 10.5556V18.5033H26.7298V11.1765C26.7298 10.4314 26.5354 9.85185 26.1466 9.43791C25.7578 9.02397 25.2232 8.81699 24.5428 8.81699C23.8463 8.81699 23.2631 9.08192 22.7933 9.61176C22.3397 10.1251 22.1129 10.8122 22.1129 11.6732V18.5033H17.9819Z" fill="white"/>
<path d="M33.0478 2.11111C33.0478 1.51503 33.2665 1.0183 33.7039 0.620916C34.1413 0.206972 34.6921 0 35.3563 0C36.0205 0 36.5713 0.206972 37.0087 0.620916C37.4461 1.0183 37.6648 1.51503 37.6648 2.11111C37.6648 2.69063 37.4461 3.18736 37.0087 3.60131C36.5713 4.01525 36.0205 4.22222 35.3563 4.22222C34.6921 4.22222 34.1413 4.01525 33.7039 3.60131C33.2665 3.18736 33.0478 2.69063 33.0478 2.11111ZM33.2908 18.5033V5.58823H37.4218V18.5033H33.2908Z" fill="white"/>
<path d="M39.9799 18.5033V5.58823H44.1109V7.3268H44.3539C44.5807 6.91285 44.8561 6.56514 45.1801 6.28366C45.9739 5.57168 46.9135 5.21569 47.9988 5.21569C49.311 5.21569 50.3721 5.61307 51.1821 6.40784C51.5223 6.739 51.7977 7.12811 52.0083 7.57516H52.2513C52.4457 7.14466 52.713 6.75556 53.0532 6.40784C53.8308 5.61307 54.8595 5.21569 56.1393 5.21569C57.6297 5.21569 58.788 5.6793 59.6142 6.60654C60.4566 7.51721 60.8778 8.83355 60.8778 10.5556V18.5033H56.7468V11.1765C56.7468 9.60349 56.0988 8.81699 54.8028 8.81699C54.1062 8.81699 53.5473 9.05708 53.1261 9.53726C52.7049 10.0174 52.4943 10.688 52.4943 11.549V18.5033H48.3633V11.1765C48.3633 9.60349 47.7153 8.81699 46.4194 8.81699C45.7228 8.81699 45.1639 9.05708 44.7427 9.53726C44.3215 10.0174 44.1109 10.688 44.1109 11.549V18.5033H39.9799Z" fill="white"/>
<path d="M63.0666 2.11111C63.0666 1.51503 63.2853 1.0183 63.7227 0.620916C64.1601 0.206972 64.7109 0 65.3751 0C66.0393 0 66.5901 0.206972 67.0275 0.620916C67.4649 1.0183 67.6836 1.51503 67.6836 2.11111C67.6836 2.69063 67.4649 3.18736 67.0275 3.60131C66.5901 4.01525 66.0393 4.22222 65.3751 4.22222C64.7109 4.22222 64.1601 4.01525 63.7227 3.60131C63.2853 3.18736 63.0666 2.69063 63.0666 2.11111ZM63.3096 18.5033V5.58823H67.4406V18.5033H63.3096Z" fill="white"/>
<path d="M69.9987 18.5033V5.58823H74.1297V7.3268H74.3727C74.5995 6.92941 74.8911 6.5817 75.2475 6.28366C76.0737 5.57168 77.0376 5.21569 78.1392 5.21569C79.6296 5.21569 80.7879 5.6793 81.6141 6.60654C82.4565 7.51721 82.8777 8.83355 82.8777 10.5556V18.5033H78.7467V11.1765C78.7467 10.4314 78.5523 9.85185 78.1635 9.43791C77.7747 9.02397 77.2401 8.81699 76.5597 8.81699C75.8631 8.81699 75.2799 9.08192 74.8101 9.61176C74.3565 10.1251 74.1297 10.8122 74.1297 11.6732V18.5033H69.9987Z" fill="white"/>
<path d="M86.5955 16.8641C85.251 15.5229 84.5787 13.9168 84.5787 12.0458C84.5787 10.1747 85.251 8.56863 86.5955 7.22745C87.9401 5.88628 89.5763 5.21569 91.5041 5.21569C93.4643 5.21569 95.1086 5.88628 96.437 7.22745C97.7654 8.56863 98.4296 10.1747 98.4296 12.0458V12.7909H88.8311C88.9607 13.6684 89.2523 14.3473 89.7059 14.8275C90.1757 15.2911 90.7751 15.5229 91.5041 15.5229C92.3627 15.5229 93.0107 15.2993 93.4481 14.8523C93.6425 14.6702 93.8045 14.4383 93.9341 14.1569H98.3081C98.0165 15.0675 97.5791 15.854 96.9959 16.5163C95.7161 18.0893 93.8855 18.8758 91.5041 18.8758C89.5763 18.8758 87.9401 18.2052 86.5955 16.8641ZM88.9526 10.6797H94.0556C93.9098 10.0837 93.6101 9.58693 93.1565 9.18954C92.7029 8.7756 92.1521 8.56863 91.5041 8.56863C90.8561 8.56863 90.3053 8.7756 89.8517 9.18954C89.3981 9.58693 89.0984 10.0837 88.9526 10.6797Z" fill="white"/>
<path d="M100.374 18.5033V5.58823H104.383V7.45098H104.626C104.772 7.0536 104.991 6.70588 105.282 6.40784C105.946 5.69586 106.756 5.33987 107.712 5.33987H109V9.43791H106.935C106.206 9.43791 105.614 9.66972 105.161 10.1333C104.723 10.5804 104.505 11.1765 104.505 11.9216V18.5033H100.374Z" fill="white"/>
</svg>
