<svg width="25" height="25" viewBox="0 0 25 25" fill="none" xmlns="http://www.w3.org/2000/svg">
<path d="M12.4997 11.4583C11.3946 11.4583 10.3348 11.0193 9.5534 10.2379C8.77199 9.45654 8.33301 8.39674 8.33301 7.29167C8.33301 6.1866 8.77199 5.12679 9.5534 4.34539C10.3348 3.56399 11.3946 3.125 12.4997 3.125C13.6047 3.125 14.6646 3.56399 15.446 4.34539C16.2274 5.12679 16.6663 6.1866 16.6663 7.29167C16.6663 8.39674 16.2274 9.45654 15.446 10.2379C14.6646 11.0193 13.6047 11.4583 12.4997 11.4583Z" stroke="white" stroke-width="2" stroke-linecap="round"/>
<path d="M4.1665 21.875V20.8333C4.1665 19.1757 4.82498 17.586 5.99709 16.4139C7.16919 15.2418 8.7589 14.5833 10.4165 14.5833H14.5832C16.2408 14.5833 17.8305 15.2418 19.0026 16.4139C20.1747 17.586 20.8332 19.1757 20.8332 20.8333V21.875" stroke="white" stroke-width="2" stroke-linecap="round"/>
</svg>
