<svg width="18" height="18" viewBox="0 0 18 18" fill="none" xmlns="http://www.w3.org/2000/svg">
<path fill-rule="evenodd" clip-rule="evenodd" d="M9 18C4.02919 18 0 13.9708 0 9C0 4.02919 4.02919 0 9 0C13.9708 0 18 4.02919 18 9C18 13.9708 13.9708 18 9 18ZM8.4915 11.1634C8.78657 10.8391 9.07133 10.5055 9.34538 10.1632C10.0472 9.30895 10.7436 8.45018 11.4345 7.587C11.6522 7.317 11.979 7.04812 12.0336 6.74044C12.1427 6.16331 12.0701 5.54794 12.0701 4.91344H9.87187V3.375H8.11013V4.95169H6.09356V6.83606H9.4905C9.18112 7.20169 8.90944 7.50938 8.63663 7.83675C7.93478 8.69105 7.23839 9.54982 6.5475 10.413C6.34781 10.683 6.021 10.9519 5.96644 11.2596C5.85731 11.8367 5.92987 12.4521 5.92987 13.0674H8.11013V14.625H9.94444C9.90844 14.0867 9.88987 13.5866 9.85388 13.0483H12.0336V11.1639L8.4915 11.1634Z" fill="#F6B637"/>
</svg>
